<?xml version="1.0" standalone="no"?><!DOCTYPE svg PUBLIC "-//W3C//DTD SVG 1.1//EN" "http://www.w3.org/Graphics/SVG/1.1/DTD/svg11.dtd"><svg t="1728274255710" class="icon" viewBox="0 0 1024 1024" version="1.1" xmlns="http://www.w3.org/2000/svg" p-id="12484" xmlns:xlink="http://www.w3.org/1999/xlink" width="256" height="256"><path d="M780.586667 64a85.333333 85.333333 0 0 1 84.949333 93.610667L860.074667 213.333333H1002.666667v85.333334c0 124.586667-76.266667 231.338667-184.682667 276.138666l-0.832 2.816a365.568 365.568 0 0 1-154.026667 201.493334 282.410667 282.410667 0 0 1-119.104 41.962666L544 917.333333h192a32 32 0 0 1 0 64h-448a32 32 0 0 1 0-64h192v-96.256a282.410667 282.410667 0 0 1-119.104-41.962666 365.568 365.568 0 0 1-155.690667-206.954667l0.789334 2.645333C97.621333 530.005333 21.333333 423.253333 21.333333 298.666667v-85.333334h142.570667l-5.44-55.722666A85.333333 85.333333 0 0 1 243.413333 64h537.216z m0 64H243.413333a21.333333 21.333333 0 0 0-21.333333 20.906667l0.085333 2.496 33.941334 348.032a301.546667 301.546667 0 0 0 138.986666 225.6 218.752 218.752 0 0 0 233.813334 0 301.546667 301.546667 0 0 0 138.090666-217.685334l0.896-7.914666 33.941334-348.032 0.106666-2.069334a21.333333 21.333333 0 0 0-21.333333-21.333333z m79.488 85.333333l-28.245334 289.685334 0.810667-8.064A234.453333 234.453333 0 0 0 938.666667 298.666667v-21.333334h-84.821334l6.229334-64zM170.133333 277.333333H85.333333v21.333334a234.453333 234.453333 0 0 0 106.026667 196.288l0.789333 8.064L170.133333 277.333333z" fill="#333333" p-id="12485"></path><path d="M502.08 468.672l-39.530667 19.669333c-10.410667 5.184-23.274667 1.386667-28.757333-8.469333a19.242667 19.242667 0 0 1-2.133333-12.8l7.552-41.664a19.52 19.52 0 0 0-6.144-17.856l-31.957334-29.525333a19.413333 19.413333 0 0 1-0.405333-28.522667 21.76 21.76 0 0 1 12.202667-5.888l44.181333-6.08a21.248 21.248 0 0 0 16.042667-11.029333l19.776-37.930667c5.205333-9.984 17.962667-14.08 28.522666-9.173333a20.778667 20.778667 0 0 1 9.664 9.173333l19.776 37.930667c3.093333 5.952 9.088 10.069333 16.021334 11.029333l44.202666 6.08c11.648 1.6 19.712 11.84 18.005334 22.869333a19.818667 19.818667 0 0 1-6.186667 11.541334l-32 29.525333a19.52 19.52 0 0 0-6.122667 17.856l7.552 41.664c1.984 10.986667-5.802667 21.418667-17.386666 23.296a22.357333 22.357333 0 0 1-13.525334-2.026667l-39.509333-19.669333a22.357333 22.357333 0 0 0-19.84 0z" fill="#1AB370" p-id="12486"></path></svg>